<svg width="328" height="157" viewBox="0 0 328 157" fill="none" xmlns="http://www.w3.org/2000/svg">
<rect width="328" height="156.75" rx="4" fill="black"/>
<rect x="18" y="32.25" width="18" height="18" rx="2" fill="#202020"/>
<rect x="18" y="51.25" width="18" height="18" rx="2" fill="#202020"/>
<rect x="18" y="70.25" width="18" height="18" rx="2" fill="#202020"/>
<rect x="37" y="32.25" width="18" height="18" rx="2" fill="#202020"/>
<rect x="37" y="51.25" width="18" height="18" rx="2" fill="#404040"/>
<rect x="37" y="70.25" width="18" height="18" rx="2" fill="#202020"/>
<rect x="56" y="79.75" width="18" height="18" rx="2" fill="#202020"/>
<rect x="56" y="22.75" width="18" height="18" rx="2" fill="#202020"/>
<rect x="56" y="41.75" width="18" height="18" rx="2" fill="#404040"/>
<rect x="56" y="60.75" width="18" height="18" rx="2" fill="#202020"/>
<rect x="75" y="75" width="18" height="18" rx="2" fill="#202020"/>
<rect x="75" y="18" width="18" height="18" rx="2" fill="#202020"/>
<rect x="75" y="37" width="18" height="18" rx="2" fill="#404040"/>
<rect x="75" y="56" width="18" height="18" rx="2" fill="#202020"/>
<rect x="94" y="79.75" width="18" height="18" rx="2" fill="#202020"/>
<rect x="94" y="22.75" width="18" height="18" rx="2" fill="#202020"/>
<rect x="94" y="41.75" width="18" height="18" rx="2" fill="#404040"/>
<rect x="94" y="60.75" width="18" height="18" rx="2" fill="#202020"/>
<rect x="116.659" y="80.25" width="18" height="18" rx="2" transform="rotate(15 116.659 80.25)" fill="#404040"/>
<rect x="113" y="22.75" width="18" height="18" rx="2" fill="#202020"/>
<rect x="113" y="41.75" width="18" height="18" rx="2" fill="#202020"/>
<rect x="113" y="60.75" width="18" height="18" rx="2" fill="#202020"/>
<rect x="138.5" y="86.75" width="18" height="18" rx="2" transform="rotate(30 138.5 86.75)" fill="#202020"/>
<path d="M15.75 34.25V86.25C15.75 88.5972 17.6528 90.5 20 90.5H53C53.4142 90.5 53.75 90.8358 53.75 91.25V95.75C53.75 98.0972 55.6528 100 58 100H110.357C111.757 100 113.151 100.187 114.501 100.555L127.047 103.976C128.281 104.313 129.469 104.799 130.586 105.423L142.398 112.024C144.442 113.166 147.025 112.44 148.174 110.399L155.188 97.9482C155.884 96.7123 156.25 95.3177 156.25 93.8992V24.75C156.25 22.4028 154.347 20.5 152 20.5H95.95C95.5634 20.5 95.25 20.1866 95.25 19.8C95.25 17.5632 93.4368 15.75 91.2 15.75H76.8C74.5632 15.75 72.75 17.5632 72.75 19.8C72.75 20.1866 72.4366 20.5 72.05 20.5H58C55.6528 20.5 53.75 22.4028 53.75 24.75V29.25C53.75 29.6642 53.4142 30 53 30H20C17.6528 30 15.75 31.9028 15.75 34.25Z" stroke="#404040" stroke-width="0.5"/>
<rect width="18" height="18" rx="2" transform="matrix(-1 0 0 1 310 32.25)" fill="#202020"/>
<rect width="18" height="18" rx="2" transform="matrix(-1 0 0 1 310 51.25)" fill="#202020"/>
<rect width="18" height="18" rx="2" transform="matrix(-1 0 0 1 310 70.25)" fill="#202020"/>
<rect width="18" height="18" rx="2" transform="matrix(-1 0 0 1 291 32.25)" fill="#202020"/>
<rect width="18" height="18" rx="2" transform="matrix(-1 0 0 1 291 51.25)" fill="#404040"/>
<rect width="18" height="18" rx="2" transform="matrix(-1 0 0 1 291 70.25)" fill="#202020"/>
<rect width="18" height="18" rx="2" transform="matrix(-1 0 0 1 272 79.75)" fill="#202020"/>
<rect width="18" height="18" rx="2" transform="matrix(-1 0 0 1 272 22.75)" fill="#202020"/>
<rect width="18" height="18" rx="2" transform="matrix(-1 0 0 1 272 41.75)" fill="#404040"/>
<rect width="18" height="18" rx="2" transform="matrix(-1 0 0 1 272 60.75)" fill="#202020"/>
<rect width="18" height="18" rx="2" transform="matrix(-1 0 0 1 253 75)" fill="#202020"/>
<rect width="18" height="18" rx="2" transform="matrix(-1 0 0 1 253 18)" fill="#202020"/>
<rect width="18" height="18" rx="2" transform="matrix(-1 0 0 1 253 37)" fill="#404040"/>
<rect width="18" height="18" rx="2" transform="matrix(-1 0 0 1 253 56)" fill="#202020"/>
<rect width="18" height="18" rx="2" transform="matrix(-1 0 0 1 234 79.75)" fill="#202020"/>
<rect width="18" height="18" rx="2" transform="matrix(-1 0 0 1 234 22.75)" fill="#202020"/>
<rect width="18" height="18" rx="2" transform="matrix(-1 0 0 1 234 41.75)" fill="#404040"/>
<rect width="18" height="18" rx="2" transform="matrix(-1 0 0 1 234 60.75)" fill="#202020"/>
<rect width="18" height="18" rx="2" transform="matrix(-0.965926 0.258819 0.258819 0.965926 211.341 80.25)" fill="#404040"/>
<rect width="18" height="18" rx="2" transform="matrix(-1 0 0 1 215 22.75)" fill="#202020"/>
<rect width="18" height="18" rx="2" transform="matrix(-1 0 0 1 215 41.75)" fill="#202020"/>
<rect width="18" height="18" rx="2" transform="matrix(-1 0 0 1 215 60.75)" fill="#202020"/>
<rect width="18" height="18" rx="2" transform="matrix(-0.866025 0.5 0.5 0.866025 189.5 86.75)" fill="#202020"/>
<path d="M312.25 34.25V86.25C312.25 88.5972 310.347 90.5 308 90.5H275C274.586 90.5 274.25 90.8358 274.25 91.25V95.75C274.25 98.0972 272.347 100 270 100H217.643C216.243 100 214.849 100.187 213.499 100.555L200.953 103.976C199.719 104.313 198.531 104.799 197.414 105.423L185.602 112.024C183.558 113.166 180.975 112.44 179.826 110.399L172.812 97.9482C172.116 96.7123 171.75 95.3177 171.75 93.8992V24.75C171.75 22.4028 173.653 20.5 176 20.5H232.05C232.437 20.5 232.75 20.1866 232.75 19.8C232.75 17.5632 234.563 15.75 236.8 15.75H251.2C253.437 15.75 255.25 17.5632 255.25 19.8C255.25 20.1866 255.563 20.5 255.95 20.5H270C272.347 20.5 274.25 22.4028 274.25 24.75V29.25C274.25 29.6642 274.586 30 275 30H308C310.347 30 312.25 31.9028 312.25 34.25Z" stroke="#404040" stroke-width="0.5"/>
<path d="M111.634 137.75L113.154 131.91H114.122L115.634 137.75H114.906L114.522 136.198H112.754L112.37 137.75H111.634ZM112.898 135.59H114.37L113.922 133.79C113.837 133.449 113.77 133.163 113.722 132.934C113.674 132.705 113.645 132.555 113.634 132.486C113.624 132.555 113.594 132.705 113.546 132.934C113.498 133.163 113.432 133.446 113.346 133.782L112.898 135.59ZM116.767 137.75V133.35H117.487V134.19H117.639L117.487 134.358C117.487 134.011 117.591 133.745 117.799 133.558C118.007 133.366 118.295 133.27 118.663 133.27C119.106 133.27 119.458 133.406 119.719 133.678C119.981 133.95 120.111 134.321 120.111 134.79V137.75H119.391V134.87C119.391 134.555 119.306 134.315 119.135 134.15C118.97 133.979 118.743 133.894 118.455 133.894C118.157 133.894 117.919 133.985 117.743 134.166C117.573 134.347 117.487 134.609 117.487 134.95V137.75H116.767ZM122.252 139.19L122.9 137.478L121.268 133.35H122.068L123.092 136.07C123.129 136.161 123.164 136.27 123.196 136.398C123.228 136.521 123.255 136.625 123.276 136.71C123.297 136.625 123.324 136.521 123.356 136.398C123.388 136.27 123.42 136.161 123.452 136.07L124.412 133.35H125.188L123.02 139.19H122.252ZM126.609 137.75L125.905 133.35H126.545L126.985 136.47C127.001 136.587 127.017 136.715 127.033 136.854C127.054 136.987 127.07 137.099 127.081 137.19C127.092 137.099 127.108 136.987 127.129 136.854C127.156 136.715 127.177 136.587 127.193 136.47L127.681 133.35H128.369L128.857 136.47C128.873 136.587 128.892 136.715 128.913 136.854C128.94 136.987 128.958 137.099 128.969 137.19C128.98 137.099 128.996 136.987 129.017 136.854C129.044 136.715 129.065 136.587 129.081 136.47L129.537 133.35H130.145L129.409 137.75H128.617L128.145 134.71C128.124 134.561 128.1 134.411 128.073 134.262C128.046 134.113 128.028 133.995 128.017 133.91C128.006 133.995 127.99 134.113 127.969 134.262C127.948 134.411 127.924 134.561 127.897 134.71L127.401 137.75H126.609ZM131.158 137.75V131.91H131.878V133.35V134.19H132.03L131.878 134.358C131.878 134.011 131.982 133.745 132.19 133.558C132.398 133.366 132.686 133.27 133.054 133.27C133.497 133.27 133.849 133.406 134.11 133.678C134.371 133.95 134.502 134.321 134.502 134.79V137.75H133.782V134.87C133.782 134.555 133.697 134.313 133.526 134.142C133.361 133.966 133.134 133.878 132.846 133.878C132.547 133.878 132.31 133.971 132.134 134.158C131.963 134.345 131.878 134.609 131.878 134.95V137.75H131.158ZM136.643 139.19L137.291 137.478L135.659 133.35H136.459L137.483 136.07C137.52 136.161 137.555 136.27 137.587 136.398C137.619 136.521 137.645 136.625 137.667 136.71C137.688 136.625 137.715 136.521 137.747 136.398C137.779 136.27 137.811 136.161 137.843 136.07L138.803 133.35H139.579L137.411 139.19H136.643ZM145.573 137.75V131.902H149.013V132.558H146.277V134.502H148.805V135.158H146.293V137.75H145.573ZM152.609 137.75C152.353 137.75 152.129 137.699 151.937 137.598C151.745 137.497 151.596 137.353 151.489 137.166C151.383 136.979 151.329 136.761 151.329 136.51V132.566H149.849V131.91H152.049V136.51C152.049 136.691 152.1 136.835 152.201 136.942C152.303 137.043 152.439 137.094 152.609 137.094H154.009V137.75H152.609ZM156.422 137.83C155.958 137.83 155.593 137.713 155.326 137.478C155.06 137.238 154.926 136.915 154.926 136.51C154.926 136.099 155.06 135.777 155.326 135.542C155.593 135.307 155.953 135.19 156.406 135.19H157.766V134.75C157.766 134.478 157.684 134.27 157.518 134.126C157.358 133.977 157.129 133.902 156.83 133.902C156.569 133.902 156.35 133.958 156.174 134.07C155.998 134.177 155.897 134.323 155.87 134.51H155.15C155.198 134.131 155.377 133.83 155.686 133.606C155.996 133.382 156.382 133.27 156.846 133.27C157.353 133.27 157.753 133.401 158.046 133.662C158.34 133.923 158.486 134.278 158.486 134.726V137.75H157.782V136.91H157.662L157.782 136.79C157.782 137.11 157.657 137.363 157.406 137.55C157.161 137.737 156.833 137.83 156.422 137.83ZM156.598 137.262C156.94 137.262 157.22 137.177 157.438 137.006C157.657 136.835 157.766 136.617 157.766 136.35V135.726H156.422C156.182 135.726 155.993 135.793 155.854 135.926C155.716 136.059 155.646 136.241 155.646 136.47C155.646 136.715 155.729 136.91 155.894 137.054C156.065 137.193 156.3 137.262 156.598 137.262ZM159.963 137.75V131.91H160.683V135.166H161.531L162.811 133.35H163.635L162.155 135.446L163.659 137.75H162.819L161.539 135.79H160.683V137.75H159.963ZM166.4 137.83C166.053 137.83 165.749 137.761 165.488 137.622C165.232 137.483 165.032 137.289 164.888 137.038C164.749 136.782 164.68 136.486 164.68 136.15V134.95C164.68 134.609 164.749 134.313 164.888 134.062C165.032 133.811 165.232 133.617 165.488 133.478C165.749 133.339 166.053 133.27 166.4 133.27C166.747 133.27 167.048 133.339 167.304 133.478C167.565 133.617 167.765 133.811 167.904 134.062C168.048 134.313 168.12 134.609 168.12 134.95V135.726H165.384V136.15C165.384 136.497 165.472 136.763 165.648 136.95C165.824 137.131 166.075 137.222 166.4 137.222C166.677 137.222 166.901 137.174 167.072 137.078C167.243 136.977 167.347 136.827 167.384 136.63H168.104C168.056 136.998 167.875 137.291 167.56 137.51C167.251 137.723 166.864 137.83 166.4 137.83ZM167.416 135.246V134.95C167.416 134.603 167.328 134.337 167.152 134.15C166.981 133.963 166.731 133.87 166.4 133.87C166.075 133.87 165.824 133.963 165.648 134.15C165.472 134.337 165.384 134.603 165.384 134.95V135.182H167.472L167.416 135.246ZM177.474 138.71C176.716 138.523 176.127 138.155 175.706 137.606C175.284 137.057 175.074 136.385 175.074 135.59V134.15C175.074 133.627 175.17 133.155 175.362 132.734C175.559 132.307 175.836 131.947 176.194 131.654C176.556 131.361 176.983 131.153 177.474 131.03V131.71C177.132 131.79 176.836 131.945 176.586 132.174C176.335 132.398 176.14 132.678 176.002 133.014C175.863 133.35 175.794 133.729 175.794 134.15V135.59C175.794 136.001 175.86 136.374 175.994 136.71C176.132 137.046 176.327 137.326 176.578 137.55C176.834 137.769 177.132 137.918 177.474 137.998V138.71ZM181.671 137.75V136.47H179.031V135.342L181.343 131.91H182.127L179.751 135.494V135.814H181.671V134.39H182.391V137.75H181.671ZM185.596 137.83C185.222 137.83 184.894 137.753 184.612 137.598C184.334 137.438 184.118 137.217 183.964 136.934C183.809 136.651 183.732 136.323 183.732 135.95C183.732 135.657 183.772 135.369 183.852 135.086C183.937 134.803 184.062 134.531 184.228 134.27L185.692 131.91H186.492L184.836 134.566L184.868 134.59C184.969 134.441 185.108 134.326 185.284 134.246C185.46 134.166 185.657 134.126 185.876 134.126C186.196 134.126 186.473 134.201 186.708 134.35C186.942 134.499 187.124 134.71 187.252 134.982C187.38 135.254 187.444 135.577 187.444 135.95C187.444 136.323 187.366 136.651 187.212 136.934C187.057 137.217 186.841 137.438 186.564 137.598C186.292 137.753 185.969 137.83 185.596 137.83ZM185.588 137.19C185.929 137.19 186.204 137.078 186.412 136.854C186.62 136.625 186.724 136.323 186.724 135.95C186.724 135.577 186.62 135.278 186.412 135.054C186.204 134.825 185.929 134.71 185.588 134.71C185.246 134.71 184.972 134.825 184.764 135.054C184.556 135.278 184.452 135.577 184.452 135.95C184.452 136.323 184.556 136.625 184.764 136.854C184.972 137.078 185.246 137.19 185.588 137.19ZM193.541 137.75V131.91H194.261V135.166H195.109L196.389 133.35H197.213L195.733 135.446L197.237 137.75H196.397L195.117 135.79H194.261V137.75H193.541ZM199.978 137.83C199.631 137.83 199.327 137.761 199.066 137.622C198.81 137.483 198.61 137.289 198.466 137.038C198.327 136.782 198.258 136.486 198.258 136.15V134.95C198.258 134.609 198.327 134.313 198.466 134.062C198.61 133.811 198.81 133.617 199.066 133.478C199.327 133.339 199.631 133.27 199.978 133.27C200.325 133.27 200.626 133.339 200.882 133.478C201.143 133.617 201.343 133.811 201.482 134.062C201.626 134.313 201.698 134.609 201.698 134.95V135.726H198.962V136.15C198.962 136.497 199.05 136.763 199.226 136.95C199.402 137.131 199.653 137.222 199.978 137.222C200.255 137.222 200.479 137.174 200.65 137.078C200.821 136.977 200.925 136.827 200.962 136.63H201.682C201.634 136.998 201.453 137.291 201.138 137.51C200.829 137.723 200.442 137.83 199.978 137.83ZM200.994 135.246V134.95C200.994 134.603 200.906 134.337 200.73 134.15C200.559 133.963 200.309 133.87 199.978 133.87C199.653 133.87 199.402 133.963 199.226 134.15C199.05 134.337 198.962 134.603 198.962 134.95V135.182H201.05L200.994 135.246ZM203.799 139.19L204.447 137.478L202.815 133.35H203.615L204.639 136.07C204.676 136.161 204.711 136.27 204.743 136.398C204.775 136.521 204.802 136.625 204.823 136.71C204.844 136.625 204.871 136.521 204.903 136.398C204.935 136.27 204.967 136.161 204.999 136.07L205.959 133.35H206.735L204.567 139.19H203.799ZM209.436 137.814C209.137 137.814 208.876 137.769 208.652 137.678C208.433 137.582 208.257 137.449 208.124 137.278C207.996 137.107 207.919 136.905 207.892 136.67H208.612C208.644 136.825 208.729 136.947 208.868 137.038C209.012 137.129 209.201 137.174 209.436 137.174H209.772C210.055 137.174 210.265 137.118 210.404 137.006C210.543 136.889 210.612 136.734 210.612 136.542C210.612 136.355 210.548 136.209 210.42 136.102C210.297 135.99 210.113 135.915 209.868 135.878L209.276 135.782C208.844 135.707 208.521 135.574 208.308 135.382C208.1 135.185 207.996 134.899 207.996 134.526C207.996 134.131 208.121 133.827 208.372 133.614C208.623 133.395 208.999 133.286 209.5 133.286H209.804C210.225 133.286 210.564 133.385 210.82 133.582C211.076 133.779 211.231 134.046 211.284 134.382H210.564C210.532 134.243 210.452 134.134 210.324 134.054C210.196 133.969 210.023 133.926 209.804 133.926H209.5C209.228 133.926 209.028 133.977 208.9 134.078C208.777 134.179 208.716 134.331 208.716 134.534C208.716 134.715 208.769 134.849 208.876 134.934C208.983 135.019 209.151 135.081 209.38 135.118L209.972 135.214C210.447 135.289 210.791 135.427 211.004 135.63C211.223 135.833 211.332 136.126 211.332 136.51C211.332 136.915 211.201 137.235 210.94 137.47C210.684 137.699 210.295 137.814 209.772 137.814H209.436ZM212.889 138.71V137.998C213.235 137.918 213.534 137.769 213.785 137.55C214.035 137.326 214.227 137.046 214.361 136.71C214.499 136.374 214.569 136.001 214.569 135.59V134.15C214.569 133.729 214.499 133.35 214.361 133.014C214.222 132.678 214.027 132.398 213.777 132.174C213.526 131.945 213.23 131.79 212.889 131.71V131.03C213.385 131.153 213.811 131.361 214.169 131.654C214.526 131.947 214.801 132.307 214.993 132.734C215.19 133.155 215.289 133.627 215.289 134.15V135.59C215.289 136.385 215.078 137.057 214.657 137.606C214.235 138.155 213.646 138.523 212.889 138.71Z" fill="white"/>
</svg>
