<svg width="328" height="157" viewBox="0 0 328 157" fill="none" xmlns="http://www.w3.org/2000/svg">
<rect width="328" height="156.75" rx="4" fill="black"/>
<rect x="37" y="32.25" width="18" height="18" rx="2" fill="#202020"/>
<rect x="37" y="51.25" width="18" height="18" rx="2" fill="#404040"/>
<rect x="37" y="70.25" width="18" height="18" rx="2" fill="#202020"/>
<rect x="56" y="79.75" width="18" height="18" rx="2" fill="#202020"/>
<rect x="56" y="22.75" width="18" height="18" rx="2" fill="#202020"/>
<rect x="56" y="41.75" width="18" height="18" rx="2" fill="#404040"/>
<rect x="56" y="60.75" width="18" height="18" rx="2" fill="#202020"/>
<rect x="75" y="75" width="18" height="18" rx="2" fill="#202020"/>
<rect x="75" y="18" width="18" height="18" rx="2" fill="#202020"/>
<rect x="75" y="37" width="18" height="18" rx="2" fill="#404040"/>
<rect x="75" y="56" width="18" height="18" rx="2" fill="#202020"/>
<rect x="94" y="79.75" width="18" height="18" rx="2" fill="#202020"/>
<rect x="94" y="22.75" width="18" height="18" rx="2" fill="#202020"/>
<rect x="94" y="41.75" width="18" height="18" rx="2" fill="#404040"/>
<rect x="94" y="60.75" width="18" height="18" rx="2" fill="#202020"/>
<rect x="116.659" y="80.25" width="18" height="18" rx="2" transform="rotate(15 116.659 80.25)" fill="#404040"/>
<rect x="113" y="22.75" width="18" height="18" rx="2" fill="#202020"/>
<rect x="113" y="41.75" width="18" height="18" rx="2" fill="#202020"/>
<rect x="113" y="60.75" width="18" height="18" rx="2" fill="#202020"/>
<rect x="138.5" y="86.75" width="18" height="18" rx="2" transform="rotate(30 138.5 86.75)" fill="#202020"/>
<path d="M34.75 34.25V86.25C34.75 88.5972 36.6528 90.5 39 90.5H53C53.4142 90.5 53.75 90.8358 53.75 91.25V95.75C53.75 98.0972 55.6528 100 58 100H110.357C111.757 100 113.151 100.187 114.501 100.555L127.047 103.976C128.281 104.313 129.469 104.799 130.586 105.423L142.398 112.024C144.442 113.166 147.025 112.44 148.174 110.399L155.188 97.9482C155.884 96.7123 156.25 95.3177 156.25 93.8992V24.75C156.25 22.4028 154.347 20.5 152 20.5H95.95C95.5634 20.5 95.25 20.1866 95.25 19.8C95.25 17.5632 93.4368 15.75 91.2 15.75H76.8C74.5632 15.75 72.75 17.5632 72.75 19.8C72.75 20.1866 72.4366 20.5 72.05 20.5H58C55.6528 20.5 53.75 22.4028 53.75 24.75V29.25C53.75 29.6642 53.4142 30 53 30H39C36.6528 30 34.75 31.9028 34.75 34.25Z" stroke="#404040" stroke-width="0.5"/>
<rect width="18" height="18" rx="2" transform="matrix(-1 0 0 1 291 32.25)" fill="#202020"/>
<rect width="18" height="18" rx="2" transform="matrix(-1 0 0 1 291 51.25)" fill="#404040"/>
<rect width="18" height="18" rx="2" transform="matrix(-1 0 0 1 291 70.25)" fill="#202020"/>
<rect width="18" height="18" rx="2" transform="matrix(-1 0 0 1 272 79.75)" fill="#202020"/>
<rect width="18" height="18" rx="2" transform="matrix(-1 0 0 1 272 22.75)" fill="#202020"/>
<rect width="18" height="18" rx="2" transform="matrix(-1 0 0 1 272 41.75)" fill="#404040"/>
<rect width="18" height="18" rx="2" transform="matrix(-1 0 0 1 272 60.75)" fill="#202020"/>
<rect width="18" height="18" rx="2" transform="matrix(-1 0 0 1 253 75)" fill="#202020"/>
<rect width="18" height="18" rx="2" transform="matrix(-1 0 0 1 253 18)" fill="#202020"/>
<rect width="18" height="18" rx="2" transform="matrix(-1 0 0 1 253 37)" fill="#404040"/>
<rect width="18" height="18" rx="2" transform="matrix(-1 0 0 1 253 56)" fill="#202020"/>
<rect width="18" height="18" rx="2" transform="matrix(-1 0 0 1 234 79.75)" fill="#202020"/>
<rect width="18" height="18" rx="2" transform="matrix(-1 0 0 1 234 22.75)" fill="#202020"/>
<rect width="18" height="18" rx="2" transform="matrix(-1 0 0 1 234 41.75)" fill="#404040"/>
<rect width="18" height="18" rx="2" transform="matrix(-1 0 0 1 234 60.75)" fill="#202020"/>
<rect width="18" height="18" rx="2" transform="matrix(-0.965926 0.258819 0.258819 0.965926 211.341 80.25)" fill="#404040"/>
<rect width="18" height="18" rx="2" transform="matrix(-1 0 0 1 215 22.75)" fill="#202020"/>
<rect width="18" height="18" rx="2" transform="matrix(-1 0 0 1 215 41.75)" fill="#202020"/>
<rect width="18" height="18" rx="2" transform="matrix(-1 0 0 1 215 60.75)" fill="#202020"/>
<rect width="18" height="18" rx="2" transform="matrix(-0.866025 0.5 0.5 0.866025 189.5 86.75)" fill="#202020"/>
<path d="M293.25 34.25V86.25C293.25 88.5972 291.347 90.5 289 90.5H275C274.586 90.5 274.25 90.8358 274.25 91.25V95.75C274.25 98.0972 272.347 100 270 100H217.643C216.243 100 214.849 100.187 213.499 100.555L200.953 103.976C199.719 104.313 198.531 104.799 197.414 105.423L185.602 112.024C183.558 113.166 180.975 112.44 179.826 110.399L172.812 97.9482C172.116 96.7123 171.75 95.3177 171.75 93.8992V24.75C171.75 22.4028 173.653 20.5 176 20.5H232.05C232.437 20.5 232.75 20.1866 232.75 19.8C232.75 17.5632 234.563 15.75 236.8 15.75H251.2C253.437 15.75 255.25 17.5632 255.25 19.8C255.25 20.1866 255.563 20.5 255.95 20.5H270C272.347 20.5 274.25 22.4028 274.25 24.75V29.25C274.25 29.6642 274.586 30 275 30H289C291.347 30 293.25 31.9028 293.25 34.25Z" stroke="#404040" stroke-width="0.5"/>
<path d="M106.838 137.75L108.358 131.91H109.326L110.838 137.75H110.11L109.726 136.198H107.958L107.574 137.75H106.838ZM108.102 135.59H109.574L109.126 133.79C109.04 133.449 108.974 133.163 108.926 132.934C108.878 132.705 108.848 132.555 108.838 132.486C108.827 132.555 108.798 132.705 108.75 132.934C108.702 133.163 108.635 133.446 108.549 133.782L108.102 135.59ZM111.97 137.75V133.35H112.69V134.19H112.842L112.69 134.358C112.69 134.011 112.794 133.745 113.002 133.558C113.21 133.366 113.498 133.27 113.866 133.27C114.309 133.27 114.661 133.406 114.922 133.678C115.184 133.95 115.314 134.321 115.314 134.79V137.75H114.594V134.87C114.594 134.555 114.509 134.315 114.338 134.15C114.173 133.979 113.946 133.894 113.658 133.894C113.36 133.894 113.122 133.985 112.946 134.166C112.776 134.347 112.69 134.609 112.69 134.95V137.75H111.97ZM117.455 139.19L118.103 137.478L116.471 133.35H117.271L118.295 136.07C118.333 136.161 118.367 136.27 118.399 136.398C118.431 136.521 118.458 136.625 118.479 136.71C118.501 136.625 118.527 136.521 118.559 136.398C118.591 136.27 118.623 136.161 118.655 136.07L119.615 133.35H120.391L118.223 139.19H117.455ZM121.812 137.75L121.108 133.35H121.748L122.188 136.47C122.204 136.587 122.22 136.715 122.236 136.854C122.257 136.987 122.273 137.099 122.284 137.19C122.295 137.099 122.311 136.987 122.332 136.854C122.359 136.715 122.38 136.587 122.396 136.47L122.884 133.35H123.572L124.06 136.47C124.076 136.587 124.095 136.715 124.116 136.854C124.143 136.987 124.161 137.099 124.172 137.19C124.183 137.099 124.199 136.987 124.22 136.854C124.247 136.715 124.268 136.587 124.284 136.47L124.74 133.35H125.348L124.612 137.75H123.82L123.348 134.71C123.327 134.561 123.303 134.411 123.276 134.262C123.249 134.113 123.231 133.995 123.22 133.91C123.209 133.995 123.193 134.113 123.172 134.262C123.151 134.411 123.127 134.561 123.1 134.71L122.604 137.75H121.812ZM126.361 137.75V131.91H127.081V133.35V134.19H127.233L127.081 134.358C127.081 134.011 127.185 133.745 127.393 133.558C127.601 133.366 127.889 133.27 128.257 133.27C128.7 133.27 129.052 133.406 129.313 133.678C129.574 133.95 129.705 134.321 129.705 134.79V137.75H128.985V134.87C128.985 134.555 128.9 134.313 128.729 134.142C128.564 133.966 128.337 133.878 128.049 133.878C127.75 133.878 127.513 133.971 127.337 134.158C127.166 134.345 127.081 134.609 127.081 134.95V137.75H126.361ZM131.846 139.19L132.494 137.478L130.862 133.35H131.662L132.686 136.07C132.723 136.161 132.758 136.27 132.79 136.398C132.822 136.521 132.849 136.625 132.87 136.71C132.891 136.625 132.918 136.521 132.95 136.398C132.982 136.27 133.014 136.161 133.046 136.07L134.006 133.35H134.782L132.614 139.19H131.846ZM140.776 137.75V131.902H144.216V132.558H141.48V134.502H144.008V135.158H141.496V137.75H140.776ZM147.813 137.75C147.557 137.75 147.333 137.699 147.141 137.598C146.949 137.497 146.799 137.353 146.693 137.166C146.586 136.979 146.533 136.761 146.533 136.51V132.566H145.053V131.91H147.253V136.51C147.253 136.691 147.303 136.835 147.405 136.942C147.506 137.043 147.642 137.094 147.813 137.094H149.213V137.75H147.813ZM151.625 137.83C151.161 137.83 150.796 137.713 150.529 137.478C150.263 137.238 150.129 136.915 150.129 136.51C150.129 136.099 150.263 135.777 150.529 135.542C150.796 135.307 151.156 135.19 151.609 135.19H152.969V134.75C152.969 134.478 152.887 134.27 152.721 134.126C152.561 133.977 152.332 133.902 152.033 133.902C151.772 133.902 151.553 133.958 151.377 134.07C151.201 134.177 151.1 134.323 151.073 134.51H150.353C150.401 134.131 150.58 133.83 150.889 133.606C151.199 133.382 151.585 133.27 152.049 133.27C152.556 133.27 152.956 133.401 153.249 133.662C153.543 133.923 153.689 134.278 153.689 134.726V137.75H152.985V136.91H152.865L152.985 136.79C152.985 137.11 152.86 137.363 152.609 137.55C152.364 137.737 152.036 137.83 151.625 137.83ZM151.801 137.262C152.143 137.262 152.423 137.177 152.641 137.006C152.86 136.835 152.969 136.617 152.969 136.35V135.726H151.625C151.385 135.726 151.196 135.793 151.057 135.926C150.919 136.059 150.849 136.241 150.849 136.47C150.849 136.715 150.932 136.91 151.097 137.054C151.268 137.193 151.503 137.262 151.801 137.262ZM155.166 137.75V131.91H155.886V135.166H156.734L158.014 133.35H158.838L157.358 135.446L158.862 137.75H158.022L156.742 135.79H155.886V137.75H155.166ZM161.603 137.83C161.256 137.83 160.952 137.761 160.691 137.622C160.435 137.483 160.235 137.289 160.091 137.038C159.952 136.782 159.883 136.486 159.883 136.15V134.95C159.883 134.609 159.952 134.313 160.091 134.062C160.235 133.811 160.435 133.617 160.691 133.478C160.952 133.339 161.256 133.27 161.603 133.27C161.95 133.27 162.251 133.339 162.507 133.478C162.768 133.617 162.968 133.811 163.107 134.062C163.251 134.313 163.323 134.609 163.323 134.95V135.726H160.587V136.15C160.587 136.497 160.675 136.763 160.851 136.95C161.027 137.131 161.278 137.222 161.603 137.222C161.88 137.222 162.104 137.174 162.275 137.078C162.446 136.977 162.55 136.827 162.587 136.63H163.307C163.259 136.998 163.078 137.291 162.763 137.51C162.454 137.723 162.067 137.83 161.603 137.83ZM162.619 135.246V134.95C162.619 134.603 162.531 134.337 162.355 134.15C162.184 133.963 161.934 133.87 161.603 133.87C161.278 133.87 161.027 133.963 160.851 134.15C160.675 134.337 160.587 134.603 160.587 134.95V135.182H162.675L162.619 135.246ZM171.229 137.83C170.845 137.83 170.514 137.766 170.237 137.638C169.965 137.51 169.754 137.326 169.605 137.086C169.456 136.846 169.378 136.561 169.373 136.23H170.093C170.093 136.523 170.192 136.755 170.389 136.926C170.592 137.097 170.872 137.182 171.229 137.182C171.565 137.182 171.826 137.099 172.013 136.934C172.205 136.769 172.301 136.539 172.301 136.246C172.301 136.011 172.237 135.806 172.109 135.63C171.986 135.454 171.808 135.331 171.573 135.262L170.781 135.014C170.381 134.891 170.072 134.686 169.853 134.398C169.64 134.11 169.533 133.771 169.533 133.382C169.533 133.067 169.602 132.795 169.741 132.566C169.885 132.331 170.085 132.15 170.341 132.022C170.597 131.889 170.898 131.822 171.245 131.822C171.757 131.822 172.168 131.966 172.477 132.254C172.786 132.537 172.944 132.915 172.949 133.39H172.229C172.229 133.102 172.141 132.878 171.965 132.718C171.794 132.553 171.552 132.47 171.237 132.47C170.928 132.47 170.685 132.545 170.509 132.694C170.338 132.843 170.253 133.051 170.253 133.318C170.253 133.558 170.317 133.766 170.445 133.942C170.573 134.118 170.757 134.243 170.997 134.318L171.797 134.574C172.186 134.697 172.488 134.905 172.701 135.198C172.914 135.491 173.021 135.835 173.021 136.23C173.021 136.55 172.946 136.83 172.797 137.07C172.648 137.31 172.437 137.497 172.165 137.63C171.898 137.763 171.586 137.83 171.229 137.83ZM182.271 138.71C181.513 138.523 180.924 138.155 180.503 137.606C180.081 137.057 179.871 136.385 179.871 135.59V134.15C179.871 133.627 179.967 133.155 180.159 132.734C180.356 132.307 180.633 131.947 180.991 131.654C181.353 131.361 181.78 131.153 182.271 131.03V131.71C181.929 131.79 181.633 131.945 181.383 132.174C181.132 132.398 180.937 132.678 180.799 133.014C180.66 133.35 180.591 133.729 180.591 134.15V135.59C180.591 136.001 180.657 136.374 180.791 136.71C180.929 137.046 181.124 137.326 181.375 137.55C181.631 137.769 181.929 137.918 182.271 137.998V138.71ZM186.468 137.75V136.47H183.828V135.342L186.14 131.91H186.924L184.548 135.494V135.814H186.468V134.39H187.188V137.75H186.468ZM190.384 137.83C190.027 137.83 189.715 137.761 189.448 137.622C189.187 137.478 188.984 137.278 188.84 137.022C188.696 136.761 188.624 136.457 188.624 136.11V133.55C188.624 133.198 188.696 132.894 188.84 132.638C188.984 132.382 189.187 132.185 189.448 132.046C189.715 131.902 190.027 131.83 190.384 131.83C190.747 131.83 191.059 131.902 191.32 132.046C191.582 132.185 191.784 132.382 191.928 132.638C192.072 132.894 192.144 133.198 192.144 133.55V136.11C192.144 136.457 192.072 136.761 191.928 137.022C191.784 137.278 191.579 137.478 191.312 137.622C191.051 137.761 190.742 137.83 190.384 137.83ZM190.384 137.214C190.704 137.214 190.96 137.113 191.152 136.91C191.35 136.702 191.448 136.435 191.448 136.11V133.55C191.448 133.225 191.35 132.961 191.152 132.758C190.96 132.55 190.704 132.446 190.384 132.446C190.064 132.446 189.806 132.55 189.608 132.758C189.416 132.961 189.32 133.225 189.32 133.55V136.11C189.32 136.435 189.416 136.702 189.608 136.91C189.806 137.113 190.064 137.214 190.384 137.214ZM190.384 135.302C190.24 135.302 190.123 135.257 190.032 135.166C189.947 135.075 189.904 134.955 189.904 134.806C189.904 134.662 189.947 134.547 190.032 134.462C190.123 134.371 190.24 134.326 190.384 134.326C190.528 134.326 190.643 134.371 190.728 134.462C190.819 134.547 190.864 134.662 190.864 134.806C190.864 134.955 190.819 135.075 190.728 135.166C190.643 135.257 190.528 135.302 190.384 135.302ZM198.338 137.75V131.91H199.058V135.166H199.906L201.186 133.35H202.01L200.53 135.446L202.034 137.75H201.194L199.914 135.79H199.058V137.75H198.338ZM204.775 137.83C204.428 137.83 204.124 137.761 203.863 137.622C203.607 137.483 203.407 137.289 203.263 137.038C203.124 136.782 203.055 136.486 203.055 136.15V134.95C203.055 134.609 203.124 134.313 203.263 134.062C203.407 133.811 203.607 133.617 203.863 133.478C204.124 133.339 204.428 133.27 204.775 133.27C205.122 133.27 205.423 133.339 205.679 133.478C205.94 133.617 206.14 133.811 206.279 134.062C206.423 134.313 206.495 134.609 206.495 134.95V135.726H203.759V136.15C203.759 136.497 203.847 136.763 204.023 136.95C204.199 137.131 204.45 137.222 204.775 137.222C205.052 137.222 205.276 137.174 205.447 137.078C205.618 136.977 205.722 136.827 205.759 136.63H206.479C206.431 136.998 206.25 137.291 205.935 137.51C205.626 137.723 205.239 137.83 204.775 137.83ZM205.791 135.246V134.95C205.791 134.603 205.703 134.337 205.527 134.15C205.356 133.963 205.106 133.87 204.775 133.87C204.45 133.87 204.199 133.963 204.023 134.15C203.847 134.337 203.759 134.603 203.759 134.95V135.182H205.847L205.791 135.246ZM208.596 139.19L209.244 137.478L207.612 133.35H208.412L209.436 136.07C209.473 136.161 209.508 136.27 209.54 136.398C209.572 136.521 209.599 136.625 209.62 136.71C209.641 136.625 209.668 136.521 209.7 136.398C209.732 136.27 209.764 136.161 209.796 136.07L210.756 133.35H211.532L209.364 139.19H208.596ZM214.233 137.814C213.934 137.814 213.673 137.769 213.449 137.678C213.23 137.582 213.054 137.449 212.921 137.278C212.793 137.107 212.715 136.905 212.689 136.67H213.409C213.441 136.825 213.526 136.947 213.665 137.038C213.809 137.129 213.998 137.174 214.233 137.174H214.569C214.851 137.174 215.062 137.118 215.201 137.006C215.339 136.889 215.409 136.734 215.409 136.542C215.409 136.355 215.345 136.209 215.217 136.102C215.094 135.99 214.91 135.915 214.665 135.878L214.073 135.782C213.641 135.707 213.318 135.574 213.105 135.382C212.897 135.185 212.793 134.899 212.793 134.526C212.793 134.131 212.918 133.827 213.169 133.614C213.419 133.395 213.795 133.286 214.297 133.286H214.601C215.022 133.286 215.361 133.385 215.617 133.582C215.873 133.779 216.027 134.046 216.081 134.382H215.361C215.329 134.243 215.249 134.134 215.121 134.054C214.993 133.969 214.819 133.926 214.601 133.926H214.297C214.025 133.926 213.825 133.977 213.697 134.078C213.574 134.179 213.513 134.331 213.513 134.534C213.513 134.715 213.566 134.849 213.673 134.934C213.779 135.019 213.947 135.081 214.177 135.118L214.769 135.214C215.243 135.289 215.587 135.427 215.801 135.63C216.019 135.833 216.129 136.126 216.129 136.51C216.129 136.915 215.998 137.235 215.737 137.47C215.481 137.699 215.091 137.814 214.569 137.814H214.233ZM217.686 138.71V137.998C218.032 137.918 218.331 137.769 218.582 137.55C218.832 137.326 219.024 137.046 219.158 136.71C219.296 136.374 219.366 136.001 219.366 135.59V134.15C219.366 133.729 219.296 133.35 219.158 133.014C219.019 132.678 218.824 132.398 218.574 132.174C218.323 131.945 218.027 131.79 217.686 131.71V131.03C218.182 131.153 218.608 131.361 218.966 131.654C219.323 131.947 219.598 132.307 219.79 132.734C219.987 133.155 220.086 133.627 220.086 134.15V135.59C220.086 136.385 219.875 137.057 219.454 137.606C219.032 138.155 218.443 138.523 217.686 138.71Z" fill="white"/>
</svg>
